<svg width="510" height="448" viewBox="0 0 510 448" fill="none" xmlns="http://www.w3.org/2000/svg">
<path d="M485.16 166.88C507.558 94.642 501.961 22.96 480.121 3.92001C462.199 -12.877 393.32 34.721 350.201 68.322C308.201 56.56 228.121 43.681 155.321 82.322C154.762 82.8806 154.2 82.8806 153.083 83.4431C104.923 60.4821 27.0826 26.3221 10.2826 38.0841C-12.6784 54.3221 4.1224 180.324 53.9626 241.924C48.361 278.885 45.5642 352.244 102.682 400.404C193.401 477.123 396.122 458.642 474.522 357.283C517.081 302.963 521.002 227.363 485.163 166.883L485.16 166.88Z" fill="black"/>
</svg>
